<?xml version="1.0" encoding="utf-8" standalone="no"?>
<!DOCTYPE svg PUBLIC "-//W3C//DTD SVG 1.1//EN"
  "http://www.w3.org/Graphics/SVG/1.1/DTD/svg11.dtd">
<!-- Created with matplotlib (https://matplotlib.org/) -->
<svg height="432pt" version="1.1" viewBox="0 0 864 432" width="864pt" xmlns="http://www.w3.org/2000/svg" xmlns:xlink="http://www.w3.org/1999/xlink">
 <metadata>
  <rdf:RDF xmlns:cc="http://creativecommons.org/ns#" xmlns:dc="http://purl.org/dc/elements/1.1/" xmlns:rdf="http://www.w3.org/1999/02/22-rdf-syntax-ns#">
   <cc:Work>
    <dc:type rdf:resource="http://purl.org/dc/dcmitype/StillImage"/>
    <dc:date>2024-12-22T12:42:07.989425</dc:date>
    <dc:format>image/svg+xml</dc:format>
    <dc:creator>
     <cc:Agent>
      <dc:title>Matplotlib v3.3.4, https://matplotlib.org/</dc:title>
     </cc:Agent>
    </dc:creator>
   </cc:Work>
  </rdf:RDF>
 </metadata>
 <defs>
  <style type="text/css">*{stroke-linecap:butt;stroke-linejoin:round;}</style>
 </defs>
 <g id="figure_1">
  <g id="patch_1">
   <path d="M 0 432 
L 864 432 
L 864 0 
L 0 0 
z
" style="fill:#ffffff;"/>
  </g>
  <g id="axes_1">
   <g id="patch_2">
    <path d="M 51.86 391.48 
L 853.2 391.48 
L 853.2 28.12875 
L 51.86 28.12875 
z
" style="fill:#ffffff;"/>
   </g>
   <g id="matplotlib.axis_1">
    <g id="xtick_1">
     <g id="line2d_1">
      <path clip-path="url(#pe23a0d18db)" d="M 88.284545 391.48 
L 88.284545 28.12875 
" style="fill:none;stroke:#b0b0b0;stroke-linecap:square;stroke-width:0.8;"/>
     </g>
     <g id="line2d_2">
      <defs>
       <path d="M 0 0 
L 0 3.5 
" id="md156914291" style="stroke:#000000;stroke-width:0.8;"/>
      </defs>
      <g>
       <use style="stroke:#000000;stroke-width:0.8;" x="88.284545" xlink:href="#md156914291" y="391.48"/>
      </g>
     </g>
     <g id="text_1">
      <!-- 0 -->
      <g transform="translate(85.784545 405.355)scale(0.1 -0.1)">
       <defs>
        <path d="M 3.125 29.296875 
Q 3.90625 50 6.4375 56.046875 
Q 8.984375 62.109375 13.671875 66.015625 
Q 18.359375 69.921875 25.1875 69.921875 
Q 32.03125 69.921875 37.109375 64.25 
Q 42.1875 58.59375 43.75 50 
Q 45.3125 41.40625 44.71875 30.265625 
Q 44.140625 19.140625 40.8125 12.109375 
Q 37.5 5.078125 30.859375 2.34375 
Q 24.21875 -0.390625 17.578125 2.921875 
Q 10.9375 6.25 8.203125 11.71875 
Q 5.46875 17.1875 4.296875 23.234375 
Q 3.125 29.296875 3.90625 50 
z
M 12.890625 52.734375 
Q 10.546875 31.25 12.5 22.84375 
Q 14.453125 14.453125 18.9375 10.9375 
Q 23.4375 7.421875 28.125 9.5625 
Q 32.8125 11.71875 34.953125 18.15625 
Q 37.109375 24.609375 37.109375 32.21875 
Q 37.109375 39.84375 36.515625 46.09375 
Q 35.9375 52.34375 33 57.421875 
Q 30.078125 62.5 25.1875 62.6875 
Q 20.3125 62.890625 16.59375 57.8125 
Q 12.890625 52.734375 10.546875 31.25 
z
" id="SimHei-48"/>
       </defs>
       <use xlink:href="#SimHei-48"/>
      </g>
     </g>
    </g>
    <g id="xtick_2">
     <g id="line2d_3">
      <path clip-path="url(#pe23a0d18db)" d="M 250.171414 391.48 
L 250.171414 28.12875 
" style="fill:none;stroke:#b0b0b0;stroke-linecap:square;stroke-width:0.8;"/>
     </g>
     <g id="line2d_4">
      <g>
       <use style="stroke:#000000;stroke-width:0.8;" x="250.171414" xlink:href="#md156914291" y="391.48"/>
      </g>
     </g>
     <g id="text_2">
      <!-- 2 -->
      <g transform="translate(247.671414 405.355)scale(0.1 -0.1)">
       <defs>
        <path d="M 4.6875 3.90625 
Q 5.078125 9.765625 10.15625 14.453125 
Q 15.234375 19.140625 23.046875 29.09375 
Q 30.859375 39.0625 33.203125 44.53125 
Q 35.546875 50 34.953125 53.90625 
Q 34.375 57.8125 31.25 60.34375 
Q 28.125 62.890625 24.015625 62.5 
Q 19.921875 62.109375 16.203125 59.375 
Q 12.5 56.640625 10.546875 51.171875 
L 3.125 52.34375 
Q 6.25 61.328125 11.125 65.421875 
Q 16.015625 69.53125 22.65625 69.921875 
Q 26.5625 70.3125 29.6875 69.71875 
Q 32.8125 69.140625 36.125 66.984375 
Q 39.453125 64.84375 41.59375 60.546875 
Q 43.75 56.25 43.15625 50.1875 
Q 42.578125 44.140625 37.109375 35.734375 
Q 31.640625 27.34375 16.015625 9.375 
L 44.140625 9.375 
L 44.140625 2.34375 
L 4.6875 2.34375 
z
" id="SimHei-50"/>
       </defs>
       <use xlink:href="#SimHei-50"/>
      </g>
     </g>
    </g>
    <g id="xtick_3">
     <g id="line2d_5">
      <path clip-path="url(#pe23a0d18db)" d="M 412.058283 391.48 
L 412.058283 28.12875 
" style="fill:none;stroke:#b0b0b0;stroke-linecap:square;stroke-width:0.8;"/>
     </g>
     <g id="line2d_6">
      <g>
       <use style="stroke:#000000;stroke-width:0.8;" x="412.058283" xlink:href="#md156914291" y="391.48"/>
      </g>
     </g>
     <g id="text_3">
      <!-- 4 -->
      <g transform="translate(409.558283 405.355)scale(0.1 -0.1)">
       <defs>
        <path d="M 31.25 17.1875 
L 1.171875 17.1875 
L 1.171875 23.828125 
L 32.8125 69.53125 
L 38.671875 69.53125 
L 38.671875 23.828125 
L 48.046875 23.828125 
L 48.046875 17.1875 
L 38.671875 17.1875 
L 38.671875 2.34375 
L 31.25 2.34375 
z
M 31.25 23.828125 
L 31.25 54.6875 
L 9.375 23.828125 
z
" id="SimHei-52"/>
       </defs>
       <use xlink:href="#SimHei-52"/>
      </g>
     </g>
    </g>
    <g id="xtick_4">
     <g id="line2d_7">
      <path clip-path="url(#pe23a0d18db)" d="M 573.945152 391.48 
L 573.945152 28.12875 
" style="fill:none;stroke:#b0b0b0;stroke-linecap:square;stroke-width:0.8;"/>
     </g>
     <g id="line2d_8">
      <g>
       <use style="stroke:#000000;stroke-width:0.8;" x="573.945152" xlink:href="#md156914291" y="391.48"/>
      </g>
     </g>
     <g id="text_4">
      <!-- 6 -->
      <g transform="translate(571.445152 405.355)scale(0.1 -0.1)">
       <defs>
        <path d="M 3.515625 19.53125 
Q 4.296875 30.859375 6.046875 34.765625 
Q 7.8125 38.671875 11.328125 44.53125 
L 27.34375 69.53125 
L 36.328125 69.53125 
L 19.921875 43.75 
Q 30.46875 46.484375 36.71875 42.96875 
Q 42.96875 39.453125 45.109375 34.953125 
Q 47.265625 30.46875 47.453125 25.1875 
Q 47.65625 19.921875 45.890625 14.84375 
Q 44.140625 9.765625 39.640625 5.65625 
Q 35.15625 1.5625 27.140625 1.171875 
Q 19.140625 0.78125 13.46875 4.09375 
Q 7.8125 7.421875 5.65625 13.46875 
Q 3.515625 19.53125 4.296875 30.859375 
z
M 12.5 16.015625 
Q 19.53125 8.59375 25.390625 8.203125 
Q 31.25 7.8125 35.15625 12.109375 
Q 39.0625 16.40625 39.0625 24.609375 
Q 39.0625 32.8125 34.171875 35.9375 
Q 29.296875 39.0625 23.234375 38.28125 
Q 17.1875 37.5 14.453125 32.421875 
Q 11.71875 27.34375 12.109375 21.671875 
Q 12.5 16.015625 19.53125 8.59375 
z
" id="SimHei-54"/>
       </defs>
       <use xlink:href="#SimHei-54"/>
      </g>
     </g>
    </g>
    <g id="xtick_5">
     <g id="line2d_9">
      <path clip-path="url(#pe23a0d18db)" d="M 735.83202 391.48 
L 735.83202 28.12875 
" style="fill:none;stroke:#b0b0b0;stroke-linecap:square;stroke-width:0.8;"/>
     </g>
     <g id="line2d_10">
      <g>
       <use style="stroke:#000000;stroke-width:0.8;" x="735.83202" xlink:href="#md156914291" y="391.48"/>
      </g>
     </g>
     <g id="text_5">
      <!-- 8 -->
      <g transform="translate(733.33202 405.355)scale(0.1 -0.1)">
       <defs>
        <path d="M 2.734375 16.796875 
Q 2.734375 26.171875 5.078125 30.65625 
Q 7.421875 35.15625 12.890625 37.890625 
Q 8.203125 40.625 6.640625 43.9375 
Q 5.078125 47.265625 4.875 51.5625 
Q 4.6875 55.859375 6.046875 58.984375 
Q 7.421875 62.109375 10.15625 64.84375 
Q 12.890625 67.578125 16.203125 68.546875 
Q 19.53125 69.53125 23.4375 69.53125 
Q 27.34375 69.53125 30.46875 68.75 
Q 33.59375 67.96875 37.109375 65.421875 
Q 40.625 62.890625 42.1875 58.203125 
Q 43.75 53.515625 41.984375 47.265625 
Q 40.234375 41.015625 32.8125 37.5 
Q 39.453125 35.546875 42.1875 31.4375 
Q 44.921875 27.34375 44.921875 21.484375 
Q 44.921875 15.625 43.15625 12.109375 
Q 41.40625 8.59375 39.25 6.25 
Q 37.109375 3.90625 33.390625 2.53125 
Q 29.6875 1.171875 24.015625 1.171875 
Q 18.359375 1.171875 14.25 2.53125 
Q 10.15625 3.90625 7.421875 6.640625 
Q 4.6875 9.375 3.703125 13.078125 
Q 2.734375 16.796875 2.734375 26.171875 
z
M 10.9375 26.5625 
Q 10.546875 17.1875 12.296875 13.671875 
Q 14.0625 10.15625 18.75 9.171875 
Q 23.4375 8.203125 28.515625 9.375 
Q 33.59375 10.546875 35.546875 14.84375 
Q 37.5 19.140625 36.90625 23.4375 
Q 36.328125 27.734375 32.03125 30.65625 
Q 27.734375 33.59375 22.65625 33.203125 
Q 17.578125 32.8125 14.25 29.6875 
Q 10.9375 26.5625 10.546875 17.1875 
z
M 12.109375 56.25 
Q 12.109375 48.4375 14.84375 44.921875 
Q 17.578125 41.40625 23.4375 41.40625 
Q 29.296875 41.40625 32.21875 44.921875 
Q 35.15625 48.4375 34.953125 53.3125 
Q 34.765625 58.203125 31.4375 60.546875 
Q 28.125 62.890625 22.453125 62.5 
Q 16.796875 62.109375 14.453125 59.171875 
Q 12.109375 56.25 12.109375 48.4375 
z
" id="SimHei-56"/>
       </defs>
       <use xlink:href="#SimHei-56"/>
      </g>
     </g>
    </g>
    <g id="text_6">
     <!-- Folds -->
     <g transform="translate(437.53 418.855)scale(0.12 -0.12)">
      <defs>
       <path d="M 45.703125 61.328125 
L 13.671875 61.328125 
L 13.671875 39.453125 
L 37.890625 39.453125 
L 37.890625 32.03125 
L 13.671875 32.03125 
L 13.671875 1.953125 
L 4.6875 1.953125 
L 4.6875 68.75 
L 45.703125 68.75 
z
" id="SimHei-70"/>
       <path d="M 45.703125 23.828125 
Q 45.703125 13.671875 39.453125 7.421875 
Q 33.203125 1.171875 24.609375 1.171875 
Q 16.015625 1.171875 9.765625 7.421875 
Q 3.515625 13.671875 3.515625 23.828125 
Q 3.515625 33.984375 9.765625 40.234375 
Q 16.015625 46.484375 24.609375 46.484375 
Q 33.203125 46.484375 39.453125 40.234375 
Q 45.703125 33.984375 45.703125 23.828125 
z
M 37.109375 23.828125 
Q 37.109375 31.640625 33.203125 35.546875 
Q 29.296875 39.453125 24.609375 39.453125 
Q 19.921875 39.453125 16.015625 35.546875 
Q 12.109375 31.640625 12.109375 23.828125 
Q 12.109375 16.015625 16.015625 12.109375 
Q 19.921875 8.203125 24.609375 8.203125 
Q 29.296875 8.203125 33.203125 12.109375 
Q 37.109375 16.015625 37.109375 23.828125 
z
" id="SimHei-111"/>
       <path d="M 28.515625 1.953125 
L 20.703125 1.953125 
L 20.703125 68.75 
L 28.515625 68.75 
z
" id="SimHei-108"/>
       <path d="M 42.96875 1.953125 
L 35.15625 1.953125 
L 35.15625 7.8125 
Q 32.8125 4.296875 29.6875 2.734375 
Q 26.5625 1.171875 22.265625 1.171875 
Q 14.453125 1.171875 8.984375 6.828125 
Q 3.515625 12.5 3.515625 23.828125 
Q 3.515625 35.15625 8.984375 41.015625 
Q 14.453125 46.875 22.265625 46.875 
Q 26.5625 46.875 29.6875 45.109375 
Q 32.8125 43.359375 35.15625 39.84375 
L 35.15625 68.75 
L 42.96875 68.75 
z
M 35.15625 23.828125 
Q 35.15625 31.25 31.828125 35.546875 
Q 28.515625 39.84375 23.828125 39.84375 
Q 17.96875 39.84375 15.03125 35.546875 
Q 12.109375 31.25 12.109375 23.828125 
Q 12.109375 16.40625 15.03125 12.296875 
Q 17.96875 8.203125 23.828125 8.203125 
Q 28.515625 8.203125 31.828125 12.296875 
Q 35.15625 16.40625 35.15625 23.828125 
z
" id="SimHei-100"/>
       <path d="M 42.96875 14.0625 
Q 42.96875 7.8125 38.078125 4.484375 
Q 33.203125 1.171875 25.78125 1.171875 
Q 16.40625 1.171875 11.328125 4.875 
Q 6.25 8.59375 6.25 15.625 
L 14.0625 15.625 
Q 14.0625 10.9375 17.375 9.375 
Q 20.703125 7.8125 25.390625 7.8125 
Q 30.078125 7.8125 32.421875 9.5625 
Q 34.765625 11.328125 34.765625 14.0625 
Q 34.765625 16.015625 32.8125 17.96875 
Q 30.859375 19.921875 23.046875 21.09375 
Q 14.0625 22.265625 10.734375 25.578125 
Q 7.421875 28.90625 7.421875 34.375 
Q 7.421875 39.0625 11.90625 42.765625 
Q 16.40625 46.484375 25 46.484375 
Q 32.8125 46.484375 37.296875 42.96875 
Q 41.796875 39.453125 41.796875 33.59375 
L 33.984375 33.59375 
Q 33.984375 37.109375 31.4375 38.46875 
Q 28.90625 39.84375 25 39.84375 
Q 19.921875 39.84375 17.765625 38.078125 
Q 15.625 36.328125 15.625 33.984375 
Q 15.625 31.25 17.578125 29.6875 
Q 19.53125 28.125 25.78125 27.34375 
Q 35.9375 25.78125 39.453125 22.453125 
Q 42.96875 19.140625 42.96875 14.0625 
z
" id="SimHei-115"/>
      </defs>
      <use xlink:href="#SimHei-70"/>
      <use x="50" xlink:href="#SimHei-111"/>
      <use x="100" xlink:href="#SimHei-108"/>
      <use x="150" xlink:href="#SimHei-100"/>
      <use x="200" xlink:href="#SimHei-115"/>
     </g>
    </g>
   </g>
   <g id="matplotlib.axis_2">
    <g id="ytick_1">
     <g id="line2d_11">
      <path clip-path="url(#pe23a0d18db)" d="M 51.86 362.987002 
L 853.2 362.987002 
" style="fill:none;stroke:#b0b0b0;stroke-linecap:square;stroke-width:0.8;"/>
     </g>
     <g id="line2d_12">
      <defs>
       <path d="M 0 0 
L -3.5 0 
" id="ma96d651be4" style="stroke:#000000;stroke-width:0.8;"/>
      </defs>
      <g>
       <use style="stroke:#000000;stroke-width:0.8;" x="51.86" xlink:href="#ma96d651be4" y="362.987002"/>
      </g>
     </g>
     <g id="text_7">
      <!-- 0.85 -->
      <g transform="translate(24.86 366.424502)scale(0.1 -0.1)">
       <defs>
        <path d="M 16.796875 1.953125 
L 7.8125 1.953125 
L 7.8125 10.546875 
L 16.796875 10.546875 
z
" id="SimHei-46"/>
        <path d="M 8.59375 20.703125 
Q 11.328125 10.15625 17.96875 8.984375 
Q 24.609375 7.8125 28.703125 10.34375 
Q 32.8125 12.890625 34.5625 16.984375 
Q 36.328125 21.09375 36.125 26.171875 
Q 35.9375 31.25 33.390625 34.765625 
Q 30.859375 38.28125 26.953125 39.453125 
Q 23.046875 40.625 18.15625 39.453125 
Q 13.28125 38.28125 10.15625 33.984375 
L 3.515625 34.765625 
Q 4.296875 37.109375 10.9375 68.359375 
L 41.796875 68.359375 
L 41.796875 61.328125 
L 16.796875 61.328125 
Q 14.84375 50.78125 12.890625 44.53125 
Q 18.75 47.265625 23.828125 47.0625 
Q 28.90625 46.875 33.59375 44.71875 
Q 38.28125 42.578125 40.421875 38.859375 
Q 42.578125 35.15625 43.546875 31.4375 
Q 44.53125 27.734375 44.328125 23.4375 
Q 44.140625 19.140625 42.578125 14.640625 
Q 41.015625 10.15625 37.890625 7.21875 
Q 34.765625 4.296875 30.265625 2.53125 
Q 25.78125 0.78125 19.921875 1.171875 
Q 14.0625 1.5625 8.78125 5.46875 
Q 3.515625 9.375 1.5625 18.75 
z
" id="SimHei-53"/>
       </defs>
       <use xlink:href="#SimHei-48"/>
       <use x="50" xlink:href="#SimHei-46"/>
       <use x="100" xlink:href="#SimHei-56"/>
       <use x="150" xlink:href="#SimHei-53"/>
      </g>
     </g>
    </g>
    <g id="ytick_2">
     <g id="line2d_13">
      <path clip-path="url(#pe23a0d18db)" d="M 51.86 319.906386 
L 853.2 319.906386 
" style="fill:none;stroke:#b0b0b0;stroke-linecap:square;stroke-width:0.8;"/>
     </g>
     <g id="line2d_14">
      <g>
       <use style="stroke:#000000;stroke-width:0.8;" x="51.86" xlink:href="#ma96d651be4" y="319.906386"/>
      </g>
     </g>
     <g id="text_8">
      <!-- 0.86 -->
      <g transform="translate(24.86 323.343886)scale(0.1 -0.1)">
       <use xlink:href="#SimHei-48"/>
       <use x="50" xlink:href="#SimHei-46"/>
       <use x="100" xlink:href="#SimHei-56"/>
       <use x="150" xlink:href="#SimHei-54"/>
      </g>
     </g>
    </g>
    <g id="ytick_3">
     <g id="line2d_15">
      <path clip-path="url(#pe23a0d18db)" d="M 51.86 276.82577 
L 853.2 276.82577 
" style="fill:none;stroke:#b0b0b0;stroke-linecap:square;stroke-width:0.8;"/>
     </g>
     <g id="line2d_16">
      <g>
       <use style="stroke:#000000;stroke-width:0.8;" x="51.86" xlink:href="#ma96d651be4" y="276.82577"/>
      </g>
     </g>
     <g id="text_9">
      <!-- 0.87 -->
      <g transform="translate(24.86 280.26327)scale(0.1 -0.1)">
       <defs>
        <path d="M 13.28125 2.34375 
Q 20.3125 32.03125 37.890625 61.328125 
L 4.296875 61.328125 
L 4.296875 68.359375 
L 46.09375 68.359375 
L 46.09375 61.71875 
Q 27.734375 32.03125 21.875 2.34375 
L 13.28125 2.34375 
z
" id="SimHei-55"/>
       </defs>
       <use xlink:href="#SimHei-48"/>
       <use x="50" xlink:href="#SimHei-46"/>
       <use x="100" xlink:href="#SimHei-56"/>
       <use x="150" xlink:href="#SimHei-55"/>
      </g>
     </g>
    </g>
    <g id="ytick_4">
     <g id="line2d_17">
      <path clip-path="url(#pe23a0d18db)" d="M 51.86 233.745154 
L 853.2 233.745154 
" style="fill:none;stroke:#b0b0b0;stroke-linecap:square;stroke-width:0.8;"/>
     </g>
     <g id="line2d_18">
      <g>
       <use style="stroke:#000000;stroke-width:0.8;" x="51.86" xlink:href="#ma96d651be4" y="233.745154"/>
      </g>
     </g>
     <g id="text_10">
      <!-- 0.88 -->
      <g transform="translate(24.86 237.182654)scale(0.1 -0.1)">
       <use xlink:href="#SimHei-48"/>
       <use x="50" xlink:href="#SimHei-46"/>
       <use x="100" xlink:href="#SimHei-56"/>
       <use x="150" xlink:href="#SimHei-56"/>
      </g>
     </g>
    </g>
    <g id="ytick_5">
     <g id="line2d_19">
      <path clip-path="url(#pe23a0d18db)" d="M 51.86 190.664538 
L 853.2 190.664538 
" style="fill:none;stroke:#b0b0b0;stroke-linecap:square;stroke-width:0.8;"/>
     </g>
     <g id="line2d_20">
      <g>
       <use style="stroke:#000000;stroke-width:0.8;" x="51.86" xlink:href="#ma96d651be4" y="190.664538"/>
      </g>
     </g>
     <g id="text_11">
      <!-- 0.89 -->
      <g transform="translate(24.86 194.102038)scale(0.1 -0.1)">
       <defs>
        <path d="M 12.5 1.171875 
Q 21.09375 15.625 26.5625 27.34375 
Q 16.796875 25.78125 10.34375 29.875 
Q 3.90625 33.984375 2.53125 41.015625 
Q 1.171875 48.046875 2.734375 53.703125 
Q 4.296875 59.375 7.609375 63.078125 
Q 10.9375 66.796875 15.625 68.359375 
Q 20.3125 69.921875 24.015625 69.921875 
Q 27.734375 69.921875 31.640625 68.359375 
Q 35.546875 66.796875 38.671875 63.671875 
Q 41.796875 60.546875 42.96875 57.21875 
Q 44.140625 53.90625 44.140625 48.625 
Q 44.140625 43.359375 40.234375 35.15625 
Q 36.328125 26.953125 21.09375 1.171875 
z
M 9.765625 50 
Q 10.9375 39.84375 14.640625 36.515625 
Q 18.359375 33.203125 22.65625 33.59375 
Q 26.953125 33.984375 29.484375 35.9375 
Q 32.03125 37.890625 34.375 42.578125 
Q 35.9375 48.4375 35.15625 52.53125 
Q 34.375 56.640625 31.046875 59.375 
Q 27.734375 62.109375 23.828125 62.109375 
Q 21.484375 62.5 17.765625 60.9375 
Q 14.0625 59.375 11.90625 54.6875 
Q 9.765625 50 10.9375 39.84375 
z
" id="SimHei-57"/>
       </defs>
       <use xlink:href="#SimHei-48"/>
       <use x="50" xlink:href="#SimHei-46"/>
       <use x="100" xlink:href="#SimHei-56"/>
       <use x="150" xlink:href="#SimHei-57"/>
      </g>
     </g>
    </g>
    <g id="ytick_6">
     <g id="line2d_21">
      <path clip-path="url(#pe23a0d18db)" d="M 51.86 147.583922 
L 853.2 147.583922 
" style="fill:none;stroke:#b0b0b0;stroke-linecap:square;stroke-width:0.8;"/>
     </g>
     <g id="line2d_22">
      <g>
       <use style="stroke:#000000;stroke-width:0.8;" x="51.86" xlink:href="#ma96d651be4" y="147.583922"/>
      </g>
     </g>
     <g id="text_12">
      <!-- 0.90 -->
      <g transform="translate(24.86 151.021422)scale(0.1 -0.1)">
       <use xlink:href="#SimHei-48"/>
       <use x="50" xlink:href="#SimHei-46"/>
       <use x="100" xlink:href="#SimHei-57"/>
       <use x="150" xlink:href="#SimHei-48"/>
      </g>
     </g>
    </g>
    <g id="ytick_7">
     <g id="line2d_23">
      <path clip-path="url(#pe23a0d18db)" d="M 51.86 104.503306 
L 853.2 104.503306 
" style="fill:none;stroke:#b0b0b0;stroke-linecap:square;stroke-width:0.8;"/>
     </g>
     <g id="line2d_24">
      <g>
       <use style="stroke:#000000;stroke-width:0.8;" x="51.86" xlink:href="#ma96d651be4" y="104.503306"/>
      </g>
     </g>
     <g id="text_13">
      <!-- 0.91 -->
      <g transform="translate(24.86 107.940806)scale(0.1 -0.1)">
       <defs>
        <path d="M 21.875 56.25 
Q 16.796875 51.171875 8.984375 46.484375 
L 8.984375 53.90625 
Q 18.75 60.546875 25 69.53125 
L 29.6875 69.53125 
L 29.6875 2.34375 
L 21.875 2.34375 
z
" id="SimHei-49"/>
       </defs>
       <use xlink:href="#SimHei-48"/>
       <use x="50" xlink:href="#SimHei-46"/>
       <use x="100" xlink:href="#SimHei-57"/>
       <use x="150" xlink:href="#SimHei-49"/>
      </g>
     </g>
    </g>
    <g id="ytick_8">
     <g id="line2d_25">
      <path clip-path="url(#pe23a0d18db)" d="M 51.86 61.42269 
L 853.2 61.42269 
" style="fill:none;stroke:#b0b0b0;stroke-linecap:square;stroke-width:0.8;"/>
     </g>
     <g id="line2d_26">
      <g>
       <use style="stroke:#000000;stroke-width:0.8;" x="51.86" xlink:href="#ma96d651be4" y="61.42269"/>
      </g>
     </g>
     <g id="text_14">
      <!-- 0.92 -->
      <g transform="translate(24.86 64.86019)scale(0.1 -0.1)">
       <use xlink:href="#SimHei-48"/>
       <use x="50" xlink:href="#SimHei-46"/>
       <use x="100" xlink:href="#SimHei-57"/>
       <use x="150" xlink:href="#SimHei-50"/>
      </g>
     </g>
    </g>
    <g id="text_15">
     <!-- RMSE -->
     <g transform="translate(19.36 221.804375)rotate(-90)scale(0.12 -0.12)">
      <defs>
       <path d="M 46.875 1.953125 
L 37.5 1.953125 
L 23.4375 30.859375 
L 13.28125 30.859375 
L 13.28125 1.953125 
L 4.296875 1.953125 
L 4.296875 68.75 
L 23.828125 68.75 
Q 33.203125 68.75 39.0625 64.25 
Q 44.921875 59.765625 44.921875 49.609375 
Q 44.921875 41.796875 41.015625 37.5 
Q 37.109375 33.203125 32.03125 32.03125 
z
M 35.9375 49.609375 
Q 35.9375 55.078125 32.609375 58.203125 
Q 29.296875 61.328125 21.875 61.328125 
L 13.28125 61.328125 
L 13.28125 38.28125 
L 24.21875 38.28125 
Q 28.90625 38.28125 32.421875 40.8125 
Q 35.9375 43.359375 35.9375 49.609375 
z
" id="SimHei-82"/>
       <path d="M 45.703125 1.953125 
L 37.890625 1.953125 
L 37.890625 49.609375 
L 37.109375 49.609375 
L 27.734375 1.953125 
L 21.484375 1.953125 
L 12.109375 49.609375 
L 11.328125 49.609375 
L 11.328125 1.953125 
L 3.515625 1.953125 
L 3.515625 68.75 
L 15.625 68.75 
L 24.21875 24.609375 
L 25 24.609375 
L 33.59375 68.75 
L 45.703125 68.75 
z
" id="SimHei-77"/>
       <path d="M 45.3125 20.703125 
Q 45.3125 11.71875 39.640625 6.4375 
Q 33.984375 1.171875 24.21875 1.171875 
Q 14.453125 1.171875 8.984375 6.640625 
Q 3.515625 12.109375 3.515625 20.3125 
L 3.515625 23.046875 
L 12.5 23.046875 
L 12.5 20.703125 
Q 12.5 14.84375 16.015625 11.71875 
Q 19.53125 8.59375 24.21875 8.59375 
Q 30.46875 8.59375 33.390625 11.90625 
Q 36.328125 15.234375 36.328125 19.921875 
Q 36.328125 23.828125 32.8125 27.140625 
Q 29.296875 30.46875 22.65625 33.203125 
Q 13.28125 36.71875 9.171875 41.015625 
Q 5.078125 45.3125 5.078125 51.171875 
Q 5.078125 59.375 10.734375 64.453125 
Q 16.40625 69.53125 24.21875 69.53125 
Q 34.375 69.53125 38.859375 63.46875 
Q 43.359375 57.421875 43.359375 50.390625 
L 34.375 50.390625 
Q 34.765625 54.6875 32.03125 58.203125 
Q 29.296875 61.71875 24.21875 61.71875 
Q 19.53125 61.71875 16.796875 59.171875 
Q 14.0625 56.640625 14.0625 52.34375 
Q 14.0625 48.828125 16.203125 46.28125 
Q 18.359375 43.75 27.34375 40.234375 
Q 35.9375 36.71875 40.625 31.828125 
Q 45.3125 26.953125 45.3125 20.703125 
z
" id="SimHei-83"/>
       <path d="M 45.3125 1.953125 
L 5.46875 1.953125 
L 5.46875 68.75 
L 43.359375 68.75 
L 43.359375 61.328125 
L 14.453125 61.328125 
L 14.453125 40.625 
L 41.015625 40.625 
L 41.015625 33.203125 
L 14.453125 33.203125 
L 14.453125 9.375 
L 45.3125 9.375 
z
" id="SimHei-69"/>
      </defs>
      <use xlink:href="#SimHei-82"/>
      <use x="50" xlink:href="#SimHei-77"/>
      <use x="100" xlink:href="#SimHei-83"/>
      <use x="150" xlink:href="#SimHei-69"/>
     </g>
    </g>
   </g>
   <g id="line2d_27">
    <path clip-path="url(#pe23a0d18db)" d="M 88.284545 374.964034 
L 169.22798 273.938233 
L 250.171414 292.162912 
L 331.114848 258.14352 
L 412.058283 254.506765 
L 493.001717 273.626645 
L 573.945152 299.493143 
L 654.888586 288.240163 
L 735.83202 231.778757 
L 816.775455 290.295429 
" style="fill:none;stroke:#1f77b4;stroke-linecap:square;stroke-width:1.5;"/>
    <defs>
     <path d="M 0 3 
C 0.795609 3 1.55874 2.683901 2.12132 2.12132 
C 2.683901 1.55874 3 0.795609 3 0 
C 3 -0.795609 2.683901 -1.55874 2.12132 -2.12132 
C 1.55874 -2.683901 0.795609 -3 0 -3 
C -0.795609 -3 -1.55874 -2.683901 -2.12132 -2.12132 
C -2.683901 -1.55874 -3 -0.795609 -3 0 
C -3 0.795609 -2.683901 1.55874 -2.12132 2.12132 
C -1.55874 2.683901 -0.795609 3 0 3 
z
" id="m8f280251a9" style="stroke:#1f77b4;"/>
    </defs>
    <g clip-path="url(#pe23a0d18db)">
     <use style="fill:#1f77b4;stroke:#1f77b4;" x="88.284545" xlink:href="#m8f280251a9" y="374.964034"/>
     <use style="fill:#1f77b4;stroke:#1f77b4;" x="169.22798" xlink:href="#m8f280251a9" y="273.938233"/>
     <use style="fill:#1f77b4;stroke:#1f77b4;" x="250.171414" xlink:href="#m8f280251a9" y="292.162912"/>
     <use style="fill:#1f77b4;stroke:#1f77b4;" x="331.114848" xlink:href="#m8f280251a9" y="258.14352"/>
     <use style="fill:#1f77b4;stroke:#1f77b4;" x="412.058283" xlink:href="#m8f280251a9" y="254.506765"/>
     <use style="fill:#1f77b4;stroke:#1f77b4;" x="493.001717" xlink:href="#m8f280251a9" y="273.626645"/>
     <use style="fill:#1f77b4;stroke:#1f77b4;" x="573.945152" xlink:href="#m8f280251a9" y="299.493143"/>
     <use style="fill:#1f77b4;stroke:#1f77b4;" x="654.888586" xlink:href="#m8f280251a9" y="288.240163"/>
     <use style="fill:#1f77b4;stroke:#1f77b4;" x="735.83202" xlink:href="#m8f280251a9" y="231.778757"/>
     <use style="fill:#1f77b4;stroke:#1f77b4;" x="816.775455" xlink:href="#m8f280251a9" y="290.295429"/>
    </g>
   </g>
   <g id="line2d_28">
    <path clip-path="url(#pe23a0d18db)" d="M 88.284545 146.932118 
L 169.22798 151.974017 
L 250.171414 109.191437 
L 331.114848 181.74781 
L 412.058283 130.662226 
L 493.001717 136.220644 
L 573.945152 156.611058 
L 654.888586 110.510642 
L 735.83202 44.644716 
L 816.775455 128.234097 
" style="fill:none;stroke:#ff7f0e;stroke-linecap:square;stroke-width:1.5;"/>
    <defs>
     <path d="M 0 3 
C 0.795609 3 1.55874 2.683901 2.12132 2.12132 
C 2.683901 1.55874 3 0.795609 3 0 
C 3 -0.795609 2.683901 -1.55874 2.12132 -2.12132 
C 1.55874 -2.683901 0.795609 -3 0 -3 
C -0.795609 -3 -1.55874 -2.683901 -2.12132 -2.12132 
C -2.683901 -1.55874 -3 -0.795609 -3 0 
C -3 0.795609 -2.683901 1.55874 -2.12132 2.12132 
C -1.55874 2.683901 -0.795609 3 0 3 
z
" id="mce928b44fc" style="stroke:#ff7f0e;"/>
    </defs>
    <g clip-path="url(#pe23a0d18db)">
     <use style="fill:#ff7f0e;stroke:#ff7f0e;" x="88.284545" xlink:href="#mce928b44fc" y="146.932118"/>
     <use style="fill:#ff7f0e;stroke:#ff7f0e;" x="169.22798" xlink:href="#mce928b44fc" y="151.974017"/>
     <use style="fill:#ff7f0e;stroke:#ff7f0e;" x="250.171414" xlink:href="#mce928b44fc" y="109.191437"/>
     <use style="fill:#ff7f0e;stroke:#ff7f0e;" x="331.114848" xlink:href="#mce928b44fc" y="181.74781"/>
     <use style="fill:#ff7f0e;stroke:#ff7f0e;" x="412.058283" xlink:href="#mce928b44fc" y="130.662226"/>
     <use style="fill:#ff7f0e;stroke:#ff7f0e;" x="493.001717" xlink:href="#mce928b44fc" y="136.220644"/>
     <use style="fill:#ff7f0e;stroke:#ff7f0e;" x="573.945152" xlink:href="#mce928b44fc" y="156.611058"/>
     <use style="fill:#ff7f0e;stroke:#ff7f0e;" x="654.888586" xlink:href="#mce928b44fc" y="110.510642"/>
     <use style="fill:#ff7f0e;stroke:#ff7f0e;" x="735.83202" xlink:href="#mce928b44fc" y="44.644716"/>
     <use style="fill:#ff7f0e;stroke:#ff7f0e;" x="816.775455" xlink:href="#mce928b44fc" y="128.234097"/>
    </g>
   </g>
   <g id="line2d_29">
    <path clip-path="url(#pe23a0d18db)" d="M 88.284545 113.936179 
L 169.22798 265.009147 
L 250.171414 202.1807 
L 331.114848 216.352184 
L 412.058283 202.827427 
L 493.001717 215.487304 
L 573.945152 208.924381 
L 654.888586 248.496781 
L 735.83202 126.329438 
L 816.775455 207.405002 
" style="fill:none;stroke:#2ca02c;stroke-linecap:square;stroke-width:1.5;"/>
    <defs>
     <path d="M 0 3 
C 0.795609 3 1.55874 2.683901 2.12132 2.12132 
C 2.683901 1.55874 3 0.795609 3 0 
C 3 -0.795609 2.683901 -1.55874 2.12132 -2.12132 
C 1.55874 -2.683901 0.795609 -3 0 -3 
C -0.795609 -3 -1.55874 -2.683901 -2.12132 -2.12132 
C -2.683901 -1.55874 -3 -0.795609 -3 0 
C -3 0.795609 -2.683901 1.55874 -2.12132 2.12132 
C -1.55874 2.683901 -0.795609 3 0 3 
z
" id="m9d50251b5e" style="stroke:#2ca02c;"/>
    </defs>
    <g clip-path="url(#pe23a0d18db)">
     <use style="fill:#2ca02c;stroke:#2ca02c;" x="88.284545" xlink:href="#m9d50251b5e" y="113.936179"/>
     <use style="fill:#2ca02c;stroke:#2ca02c;" x="169.22798" xlink:href="#m9d50251b5e" y="265.009147"/>
     <use style="fill:#2ca02c;stroke:#2ca02c;" x="250.171414" xlink:href="#m9d50251b5e" y="202.1807"/>
     <use style="fill:#2ca02c;stroke:#2ca02c;" x="331.114848" xlink:href="#m9d50251b5e" y="216.352184"/>
     <use style="fill:#2ca02c;stroke:#2ca02c;" x="412.058283" xlink:href="#m9d50251b5e" y="202.827427"/>
     <use style="fill:#2ca02c;stroke:#2ca02c;" x="493.001717" xlink:href="#m9d50251b5e" y="215.487304"/>
     <use style="fill:#2ca02c;stroke:#2ca02c;" x="573.945152" xlink:href="#m9d50251b5e" y="208.924381"/>
     <use style="fill:#2ca02c;stroke:#2ca02c;" x="654.888586" xlink:href="#m9d50251b5e" y="248.496781"/>
     <use style="fill:#2ca02c;stroke:#2ca02c;" x="735.83202" xlink:href="#m9d50251b5e" y="126.329438"/>
     <use style="fill:#2ca02c;stroke:#2ca02c;" x="816.775455" xlink:href="#m9d50251b5e" y="207.405002"/>
    </g>
   </g>
   <g id="line2d_30">
    <path clip-path="url(#pe23a0d18db)" d="M 88.284545 213.624612 
L 169.22798 108.547732 
L 250.171414 162.83137 
L 331.114848 158.808059 
L 412.058283 216.69571 
L 493.001717 193.386551 
L 573.945152 147.373946 
L 654.888586 179.398646 
L 735.83202 177.683842 
L 816.775455 153.299225 
" style="fill:none;stroke:#d62728;stroke-linecap:square;stroke-width:1.5;"/>
    <defs>
     <path d="M 0 3 
C 0.795609 3 1.55874 2.683901 2.12132 2.12132 
C 2.683901 1.55874 3 0.795609 3 0 
C 3 -0.795609 2.683901 -1.55874 2.12132 -2.12132 
C 1.55874 -2.683901 0.795609 -3 0 -3 
C -0.795609 -3 -1.55874 -2.683901 -2.12132 -2.12132 
C -2.683901 -1.55874 -3 -0.795609 -3 0 
C -3 0.795609 -2.683901 1.55874 -2.12132 2.12132 
C -1.55874 2.683901 -0.795609 3 0 3 
z
" id="m850676f114" style="stroke:#d62728;"/>
    </defs>
    <g clip-path="url(#pe23a0d18db)">
     <use style="fill:#d62728;stroke:#d62728;" x="88.284545" xlink:href="#m850676f114" y="213.624612"/>
     <use style="fill:#d62728;stroke:#d62728;" x="169.22798" xlink:href="#m850676f114" y="108.547732"/>
     <use style="fill:#d62728;stroke:#d62728;" x="250.171414" xlink:href="#m850676f114" y="162.83137"/>
     <use style="fill:#d62728;stroke:#d62728;" x="331.114848" xlink:href="#m850676f114" y="158.808059"/>
     <use style="fill:#d62728;stroke:#d62728;" x="412.058283" xlink:href="#m850676f114" y="216.69571"/>
     <use style="fill:#d62728;stroke:#d62728;" x="493.001717" xlink:href="#m850676f114" y="193.386551"/>
     <use style="fill:#d62728;stroke:#d62728;" x="573.945152" xlink:href="#m850676f114" y="147.373946"/>
     <use style="fill:#d62728;stroke:#d62728;" x="654.888586" xlink:href="#m850676f114" y="179.398646"/>
     <use style="fill:#d62728;stroke:#d62728;" x="735.83202" xlink:href="#m850676f114" y="177.683842"/>
     <use style="fill:#d62728;stroke:#d62728;" x="816.775455" xlink:href="#m850676f114" y="153.299225"/>
    </g>
   </g>
   <g id="line2d_31">
    <path clip-path="url(#pe23a0d18db)" d="M 88.284545 284.134693 
L 169.22798 328.07493 
L 250.171414 332.627 
L 331.114848 324.847004 
L 412.058283 286.764519 
L 493.001717 308.100464 
L 573.945152 273.012044 
L 654.888586 273.792115 
L 735.83202 307.107161 
L 816.775455 296.692345 
" style="fill:none;stroke:#9467bd;stroke-linecap:square;stroke-width:1.5;"/>
    <defs>
     <path d="M 0 3 
C 0.795609 3 1.55874 2.683901 2.12132 2.12132 
C 2.683901 1.55874 3 0.795609 3 0 
C 3 -0.795609 2.683901 -1.55874 2.12132 -2.12132 
C 1.55874 -2.683901 0.795609 -3 0 -3 
C -0.795609 -3 -1.55874 -2.683901 -2.12132 -2.12132 
C -2.683901 -1.55874 -3 -0.795609 -3 0 
C -3 0.795609 -2.683901 1.55874 -2.12132 2.12132 
C -1.55874 2.683901 -0.795609 3 0 3 
z
" id="m0581bfb0c2" style="stroke:#9467bd;"/>
    </defs>
    <g clip-path="url(#pe23a0d18db)">
     <use style="fill:#9467bd;stroke:#9467bd;" x="88.284545" xlink:href="#m0581bfb0c2" y="284.134693"/>
     <use style="fill:#9467bd;stroke:#9467bd;" x="169.22798" xlink:href="#m0581bfb0c2" y="328.07493"/>
     <use style="fill:#9467bd;stroke:#9467bd;" x="250.171414" xlink:href="#m0581bfb0c2" y="332.627"/>
     <use style="fill:#9467bd;stroke:#9467bd;" x="331.114848" xlink:href="#m0581bfb0c2" y="324.847004"/>
     <use style="fill:#9467bd;stroke:#9467bd;" x="412.058283" xlink:href="#m0581bfb0c2" y="286.764519"/>
     <use style="fill:#9467bd;stroke:#9467bd;" x="493.001717" xlink:href="#m0581bfb0c2" y="308.100464"/>
     <use style="fill:#9467bd;stroke:#9467bd;" x="573.945152" xlink:href="#m0581bfb0c2" y="273.012044"/>
     <use style="fill:#9467bd;stroke:#9467bd;" x="654.888586" xlink:href="#m0581bfb0c2" y="273.792115"/>
     <use style="fill:#9467bd;stroke:#9467bd;" x="735.83202" xlink:href="#m0581bfb0c2" y="307.107161"/>
     <use style="fill:#9467bd;stroke:#9467bd;" x="816.775455" xlink:href="#m0581bfb0c2" y="296.692345"/>
    </g>
   </g>
   <g id="patch_3">
    <path d="M 51.86 391.48 
L 51.86 28.12875 
" style="fill:none;stroke:#000000;stroke-linecap:square;stroke-linejoin:miter;stroke-width:0.8;"/>
   </g>
   <g id="patch_4">
    <path d="M 853.2 391.48 
L 853.2 28.12875 
" style="fill:none;stroke:#000000;stroke-linecap:square;stroke-linejoin:miter;stroke-width:0.8;"/>
   </g>
   <g id="patch_5">
    <path d="M 51.86 391.48 
L 853.2 391.48 
" style="fill:none;stroke:#000000;stroke-linecap:square;stroke-linejoin:miter;stroke-width:0.8;"/>
   </g>
   <g id="patch_6">
    <path d="M 51.86 28.12875 
L 853.2 28.12875 
" style="fill:none;stroke:#000000;stroke-linecap:square;stroke-linejoin:miter;stroke-width:0.8;"/>
   </g>
   <g id="text_16">
    <!-- RMSE 各算法交叉验证结果(msd- -user_based_False) -->
    <g transform="translate(291.53 22.12875)scale(0.14 -0.14)">
     <defs>
      <path id="SimHei-32"/>
      <path d="M 79.6875 69.140625 
Q 75.78125 62.5 70.703125 56.25 
Q 65.625 50 57.421875 42.96875 
Q 63.28125 39.0625 74.21875 36.328125 
Q 85.15625 33.59375 94.53125 33.203125 
Q 91.015625 28.515625 90.234375 25 
Q 78.90625 27.34375 68.9375 30.65625 
Q 58.984375 33.984375 51.5625 38.671875 
Q 42.96875 33.59375 31.25 29.296875 
Q 19.53125 25 8.59375 22.265625 
Q 7.421875 25.390625 4.296875 28.90625 
Q 14.0625 30.46875 25.96875 34.375 
Q 37.890625 38.28125 46.09375 42.96875 
Q 39.453125 49.21875 32.8125 60.9375 
Q 29.6875 55.859375 26.171875 51.5625 
Q 22.65625 47.265625 19.53125 43.75 
Q 16.40625 46.875 13.28125 48.4375 
Q 18.75 53.125 24.796875 61.71875 
Q 30.859375 70.3125 33.984375 81.640625 
Q 38.28125 79.296875 42.578125 78.125 
Q 40.625 75.78125 37.109375 69.140625 
z
M 77.734375 26.171875 
Q 77.34375 17.578125 77.34375 6.25 
Q 77.34375 -5.078125 77.734375 -8.984375 
L 69.921875 -8.984375 
L 69.921875 -3.515625 
L 32.03125 -3.515625 
L 32.03125 -9.765625 
L 24.21875 -9.765625 
Q 24.609375 -4.296875 24.609375 6.25 
Q 24.609375 16.796875 24.21875 26.171875 
z
M 69.921875 3.125 
L 69.921875 19.53125 
L 32.03125 19.53125 
L 32.03125 3.125 
z
M 51.953125 46.875 
Q 60.546875 53.90625 67.1875 62.890625 
L 39.0625 62.890625 
Q 46.484375 51.171875 51.953125 46.875 
z
" id="SimHei-21508"/>
      <path d="M 80.859375 57.03125 
Q 80.46875 50 80.46875 39.0625 
Q 80.46875 28.125 80.859375 20.703125 
L 71.484375 20.703125 
L 71.484375 13.671875 
L 82.03125 13.671875 
Q 88.28125 13.671875 96.09375 14.0625 
L 96.09375 7.421875 
Q 88.28125 7.8125 82.03125 7.8125 
L 71.484375 7.8125 
Q 71.484375 -1.171875 71.875 -9.765625 
L 63.28125 -9.765625 
Q 63.671875 -1.171875 63.671875 7.8125 
L 41.40625 7.8125 
Q 38.671875 1.5625 33.203125 -2.734375 
Q 27.734375 -7.03125 16.796875 -10.546875 
Q 14.453125 -6.640625 10.9375 -3.90625 
Q 19.53125 -2.34375 25 0.578125 
Q 30.46875 3.515625 33.203125 7.8125 
L 19.140625 7.8125 
Q 12.5 7.8125 4.6875 7.421875 
L 4.6875 14.0625 
Q 12.890625 13.671875 19.140625 13.671875 
L 34.375 13.671875 
Q 35.15625 16.796875 35.15625 20.703125 
L 19.53125 20.703125 
Q 19.921875 27.734375 19.921875 38.671875 
Q 19.921875 50 19.53125 57.03125 
L 80.859375 57.03125 
z
M 28.515625 79.6875 
Q 25.390625 76.5625 23.046875 73.828125 
L 37.890625 73.828125 
Q 42.96875 73.828125 49.609375 74.21875 
L 49.609375 67.578125 
Q 42.96875 67.96875 34.375 67.96875 
Q 35.15625 65.234375 36.71875 60.546875 
Q 32.421875 60.15625 28.515625 58.59375 
Q 27.34375 63.671875 26.171875 67.96875 
L 18.75 67.96875 
Q 16.796875 64.453125 12.109375 58.984375 
Q 8.203125 61.328125 3.90625 62.5 
Q 7.8125 66.015625 11.90625 70.890625 
Q 16.015625 75.78125 19.921875 82.8125 
Q 23.4375 80.859375 28.515625 79.6875 
z
M 70.703125 79.6875 
Q 67.578125 77.34375 65.234375 73.828125 
L 81.640625 73.828125 
Q 85.9375 73.828125 92.96875 74.21875 
L 92.96875 67.578125 
Q 86.71875 67.96875 77.734375 67.96875 
L 80.859375 61.71875 
Q 76.953125 61.328125 72.65625 59.765625 
Q 71.484375 64.0625 70.3125 67.96875 
L 60.9375 67.96875 
Q 57.8125 62.890625 55.078125 58.984375 
Q 50.78125 61.71875 47.265625 62.5 
Q 51.953125 67.1875 55.46875 72.0625 
Q 58.984375 76.953125 60.9375 82.421875 
Q 65.234375 80.859375 70.703125 79.6875 
z
M 72.65625 26.171875 
L 72.65625 31.25 
L 27.734375 31.25 
L 27.734375 26.171875 
z
M 72.65625 36.71875 
L 72.65625 41.40625 
L 27.734375 41.40625 
L 27.734375 36.71875 
z
M 72.65625 46.875 
L 72.65625 51.5625 
L 27.734375 51.5625 
L 27.734375 46.875 
z
M 63.671875 13.671875 
L 63.671875 20.703125 
L 42.578125 20.703125 
Q 42.578125 16.796875 42.1875 13.671875 
z
" id="SimHei-31639"/>
      <path d="M 94.921875 -4.6875 
Q 91.40625 -6.640625 87.890625 -9.765625 
Q 85.15625 -4.6875 83.203125 -1.953125 
Q 70.703125 -2.734375 56.046875 -4.09375 
Q 41.40625 -5.46875 36.328125 -7.03125 
Q 35.15625 -2.34375 33.203125 1.171875 
Q 38.28125 2.734375 44.140625 11.328125 
Q 50 19.921875 54.6875 32.8125 
L 43.75 32.8125 
Q 36.71875 32.8125 30.46875 32.421875 
L 30.46875 39.453125 
Q 36.71875 39.0625 44.140625 39.0625 
L 58.203125 39.0625 
L 58.203125 56.25 
L 49.21875 56.25 
Q 41.796875 56.25 36.328125 55.859375 
L 36.328125 62.890625 
Q 42.578125 62.5 48.828125 62.5 
L 58.203125 62.5 
Q 58.203125 73.4375 57.8125 80.46875 
L 66.40625 80.46875 
Q 66.015625 74.609375 66.015625 62.5 
L 77.734375 62.5 
Q 83.59375 62.5 89.84375 62.890625 
L 89.84375 55.859375 
Q 83.59375 56.25 78.515625 56.25 
L 66.015625 56.25 
L 66.015625 39.0625 
L 80.078125 39.0625 
Q 87.109375 39.0625 94.140625 39.453125 
L 94.140625 32.421875 
Q 87.109375 32.8125 80.078125 32.8125 
L 60.15625 32.8125 
L 64.0625 30.46875 
Q 61.71875 27.734375 56.640625 18.75 
Q 51.5625 9.765625 45.3125 1.5625 
Q 62.5 2.34375 79.296875 3.515625 
Q 74.609375 10.546875 69.53125 16.015625 
Q 72.65625 18.359375 75.390625 21.09375 
Q 82.421875 12.5 94.921875 -4.6875 
z
M 4.6875 -3.90625 
Q 10.15625 1.5625 15.8125 9.765625 
Q 21.484375 17.96875 26.953125 26.953125 
Q 28.90625 23.4375 32.421875 21.484375 
Q 28.90625 16.796875 23.4375 7.609375 
Q 17.96875 -1.5625 13.28125 -9.765625 
Q 10.15625 -6.640625 4.6875 -3.90625 
z
M 10.546875 53.515625 
Q 18.75 48.4375 28.125 41.40625 
Q 24.609375 39.0625 21.875 35.15625 
Q 14.453125 41.796875 5.46875 47.65625 
Q 8.203125 50 10.546875 53.515625 
z
M 16.40625 76.5625 
Q 24.21875 71.484375 32.8125 64.453125 
Q 29.6875 62.109375 26.953125 58.203125 
Q 19.53125 65.234375 11.328125 70.703125 
Q 14.0625 73.4375 16.40625 76.5625 
z
" id="SimHei-27861"/>
      <path d="M 36.328125 40.625 
Q 43.359375 24.609375 50 17.96875 
Q 60.546875 28.515625 66.015625 42.578125 
Q 69.140625 40.234375 73.828125 37.5 
Q 64.453125 22.65625 55.46875 12.890625 
Q 68.75 2.734375 93.75 0.390625 
Q 89.84375 -5.078125 89.0625 -8.59375 
Q 64.0625 -3.90625 49.21875 8.203125 
Q 32.421875 -4.296875 10.15625 -9.375 
Q 8.984375 -4.6875 5.859375 -0.78125 
Q 29.6875 1.953125 43.359375 13.28125 
Q 34.375 23.828125 28.90625 36.71875 
Q 33.59375 38.671875 36.328125 40.625 
z
M 19.53125 58.203125 
Q 13.671875 58.203125 8.203125 57.8125 
L 8.203125 65.625 
L 19.140625 64.84375 
L 80.078125 64.84375 
Q 86.328125 65.234375 92.96875 65.625 
L 92.96875 57.421875 
Q 86.328125 57.8125 80.078125 58.203125 
z
M 39.453125 51.5625 
Q 33.984375 46.484375 16.015625 31.25 
Q 12.890625 35.15625 8.59375 37.5 
Q 16.015625 41.40625 22.0625 47.265625 
Q 28.125 53.125 31.25 57.421875 
Q 35.15625 54.6875 39.453125 51.5625 
z
M 67.578125 57.421875 
Q 69.53125 55.859375 76.5625 50.578125 
Q 83.59375 45.3125 90.234375 40.625 
Q 85.9375 37.5 82.8125 33.984375 
Q 79.296875 38.671875 60.9375 51.5625 
Q 64.0625 54.6875 67.578125 57.421875 
z
M 50.78125 82.8125 
Q 54.6875 73.828125 56.640625 68.359375 
Q 51.171875 66.796875 47.265625 65.625 
Q 44.921875 72.265625 41.40625 80.078125 
Q 46.09375 81.640625 50.78125 82.8125 
z
" id="SimHei-20132"/>
      <path d="M 83.203125 73.4375 
Q 79.296875 57.421875 72.65625 42.375 
Q 66.015625 27.34375 55.859375 15.234375 
Q 62.890625 9.375 74.609375 5.46875 
Q 86.328125 1.5625 96.09375 0.390625 
Q 91.015625 -3.515625 89.84375 -9.375 
Q 74.609375 -4.6875 65.234375 -0.1875 
Q 55.859375 4.296875 49.21875 10.15625 
Q 39.453125 2.734375 30.65625 -1.75 
Q 21.875 -6.25 8.59375 -10.546875 
Q 7.03125 -6.640625 3.125 -2.734375 
Q 13.28125 -0.390625 23.828125 4.09375 
Q 34.375 8.59375 43.359375 15.625 
Q 36.71875 23.4375 31.046875 35.546875 
Q 25.390625 47.65625 19.921875 66.40625 
L 8.984375 66.015625 
L 8.984375 73.828125 
Q 18.75 73.4375 31.640625 73.4375 
z
M 28.515625 66.40625 
Q 33.203125 49.609375 39.0625 38.28125 
Q 44.921875 26.953125 50 21.09375 
Q 57.03125 29.296875 62.6875 40.8125 
Q 68.359375 52.34375 71.875 66.40625 
L 28.515625 66.40625 
z
M 47.265625 60.15625 
Q 53.125 51.953125 57.421875 43.359375 
Q 53.515625 41.796875 49.609375 39.0625 
Q 46.09375 47.65625 39.84375 56.25 
Q 42.96875 57.421875 47.265625 60.15625 
z
" id="SimHei-21449"/>
      <path d="M 35.9375 73.828125 
Q 35.15625 70.3125 34.765625 63.671875 
L 32.03125 33.203125 
L 39.453125 33.203125 
Q 39.0625 30.078125 38.671875 22.65625 
L 37.109375 1.171875 
Q 37.109375 -7.03125 32.421875 -8.203125 
Q 27.734375 -9.375 19.53125 -10.546875 
Q 18.359375 -5.078125 16.40625 -1.5625 
Q 24.609375 -1.5625 27.140625 -1.359375 
Q 29.6875 -1.171875 30.46875 2.34375 
L 31.640625 26.5625 
L 8.59375 26.5625 
Q 8.984375 33.984375 9.171875 42.765625 
Q 9.375 51.5625 9.375 59.375 
L 17.1875 59.375 
Q 16.40625 55.078125 16.015625 48.234375 
Q 15.625 41.40625 15.625 33.203125 
L 25.390625 33.203125 
L 28.125 67.578125 
L 17.578125 67.578125 
Q 11.328125 67.578125 5.46875 67.1875 
L 5.46875 74.21875 
Q 11.328125 73.828125 17.578125 73.828125 
z
M 67.578125 76.171875 
Q 73.828125 64.453125 80.46875 58.984375 
Q 87.109375 53.515625 96.09375 50.390625 
Q 92.578125 47.265625 90.625 42.578125 
Q 85.15625 45.703125 80.078125 50 
L 80.078125 43.359375 
Q 75 43.75 65.625 43.75 
Q 56.25 43.75 50.390625 43.359375 
L 50.390625 49.609375 
Q 48.046875 46.484375 43.75 41.40625 
Q 40.234375 44.921875 36.328125 46.875 
Q 42.578125 51.171875 45.890625 55.46875 
Q 49.21875 59.765625 51.75 64.453125 
Q 54.296875 69.140625 56.046875 73.046875 
Q 57.8125 76.953125 58.984375 81.640625 
Q 64.0625 80.46875 69.53125 79.296875 
z
M 87.5 33.59375 
Q 85.546875 31.25 84.375 27.140625 
Q 83.203125 23.046875 80.65625 14.25 
Q 78.125 5.46875 76.5625 0.390625 
L 82.03125 0.390625 
Q 84.765625 0.390625 90.625 0.78125 
L 90.625 -6.25 
Q 85.546875 -5.859375 82.03125 -5.859375 
L 51.953125 -5.859375 
Q 44.921875 -5.859375 41.796875 -6.25 
L 41.796875 0.78125 
Q 46.484375 0.390625 52.34375 0.390625 
L 69.921875 0.390625 
Q 73.046875 8.984375 75 17.96875 
L 78.90625 35.9375 
Q 82.03125 34.765625 87.5 33.59375 
z
M 79.6875 50.390625 
Q 75 53.90625 71.09375 58.984375 
Q 67.1875 64.0625 63.28125 71.875 
Q 60.15625 65.625 57.609375 61.125 
Q 55.078125 56.640625 50.78125 50.390625 
z
M 50.78125 33.984375 
Q 52.34375 28.515625 54.09375 21.484375 
Q 55.859375 14.453125 57.421875 8.59375 
Q 53.90625 8.203125 50.78125 6.640625 
Q 49.609375 14.0625 48.234375 19.140625 
Q 46.875 24.21875 44.53125 32.03125 
Q 47.65625 33.203125 50.78125 33.984375 
z
M 27.734375 17.578125 
Q 27.34375 14.84375 26.953125 10.9375 
Q 21.09375 9.765625 17.375 8.984375 
Q 13.671875 8.203125 5.859375 5.859375 
Q 4.6875 10.15625 3.125 14.453125 
Q 8.59375 14.84375 14.453125 15.625 
Q 20.3125 16.40625 27.734375 17.578125 
z
M 67.1875 25.78125 
Q 67.96875 20.703125 69.140625 12.890625 
L 62.890625 11.328125 
Q 61.328125 19.921875 60.546875 24.40625 
Q 59.765625 28.90625 58.59375 34.765625 
Q 62.109375 35.546875 65.625 35.9375 
z
" id="SimHei-39564"/>
      <path d="M 80.078125 73.046875 
Q 87.890625 73.046875 94.53125 73.4375 
L 94.53125 66.015625 
Q 87.890625 66.40625 80.078125 66.40625 
L 70.3125 66.40625 
L 70.3125 41.015625 
L 79.296875 41.015625 
Q 85.9375 41.015625 92.1875 41.40625 
L 92.1875 33.984375 
Q 86.328125 34.375 79.296875 34.375 
L 70.3125 34.375 
L 70.3125 1.953125 
L 81.25 1.953125 
Q 87.890625 1.953125 96.484375 2.34375 
L 96.484375 -5.078125 
Q 87.890625 -4.6875 81.25 -4.6875 
L 46.875 -4.6875 
Q 37.5 -4.6875 31.25 -5.078125 
L 31.25 2.34375 
Q 37.5 1.953125 43.359375 1.953125 
L 43.359375 32.421875 
Q 43.359375 40.625 42.96875 46.09375 
L 51.171875 46.09375 
Q 50.78125 41.015625 50.78125 32.421875 
L 50.78125 1.953125 
L 62.5 1.953125 
L 62.5 66.40625 
L 55.46875 66.40625 
Q 46.484375 66.40625 38.28125 66.015625 
L 38.28125 73.4375 
Q 46.484375 73.046875 55.46875 73.046875 
z
M 13.28125 -1.953125 
Q 17.96875 2.734375 17.96875 7.8125 
L 17.96875 42.96875 
L 14.453125 42.96875 
Q 8.984375 42.96875 3.515625 42.578125 
L 3.515625 50 
Q 8.59375 49.609375 14.453125 49.609375 
L 25.78125 49.609375 
Q 25.390625 42.1875 25.390625 33.984375 
L 25.390625 12.5 
Q 28.90625 16.796875 31.640625 20.703125 
Q 33.59375 16.40625 36.328125 12.890625 
Q 32.03125 7.8125 28.3125 3.3125 
Q 24.609375 -1.171875 19.140625 -8.203125 
Q 16.40625 -4.6875 13.28125 -1.953125 
z
M 23.828125 60.9375 
Q 17.1875 70.3125 12.5 75.390625 
Q 15.625 77.734375 18.359375 80.859375 
L 30.078125 66.796875 
Q 26.171875 64.0625 23.828125 60.9375 
z
" id="SimHei-35777"/>
      <path d="M 89.453125 30.078125 
Q 89.0625 25 89.0625 18.75 
L 89.0625 5.46875 
Q 89.0625 -1.953125 89.453125 -7.421875 
L 81.640625 -7.421875 
L 81.640625 0 
L 55.078125 0 
L 55.078125 -8.203125 
L 47.265625 -8.203125 
Q 47.65625 1.953125 47.65625 5.078125 
L 47.65625 19.53125 
Q 47.65625 24.21875 47.265625 30.078125 
L 89.453125 30.078125 
z
M 29.6875 75.78125 
Q 26.5625 71.875 23.046875 65.625 
Q 19.53125 59.375 14.453125 50 
Q 23.046875 50.390625 26.953125 50.390625 
Q 30.46875 56.640625 32.8125 62.5 
Q 36.71875 59.765625 41.40625 57.421875 
Q 39.453125 55.859375 34.5625 48.828125 
Q 29.6875 41.796875 19.140625 25.78125 
Q 32.03125 27.734375 39.453125 28.90625 
Q 38.28125 24.609375 38.28125 21.484375 
Q 34.765625 21.09375 25.78125 19.921875 
Q 16.796875 18.75 8.203125 16.40625 
Q 6.640625 20.3125 5.46875 24.21875 
Q 10.15625 25.390625 14.84375 31.4375 
Q 19.53125 37.5 23.046875 44.140625 
Q 20.3125 44.140625 15.03125 43.546875 
Q 9.765625 42.96875 5.859375 41.796875 
Q 4.6875 45.703125 3.515625 49.21875 
Q 7.8125 52.734375 12.6875 61.328125 
Q 17.578125 69.921875 20.3125 80.078125 
Q 25 77.734375 29.6875 75.78125 
z
M 63.671875 65.234375 
Q 63.671875 71.875 63.28125 80.859375 
L 71.484375 80.859375 
Q 71.09375 73.828125 71.09375 65.234375 
L 82.421875 65.234375 
Q 89.84375 65.234375 96.09375 65.625 
L 96.09375 58.59375 
Q 89.84375 58.984375 82.8125 58.984375 
L 71.09375 58.984375 
L 71.09375 46.09375 
L 80.078125 46.09375 
Q 85.546875 46.09375 91.015625 46.484375 
L 91.015625 39.453125 
Q 86.328125 39.84375 79.6875 39.84375 
L 57.03125 39.84375 
Q 50.390625 39.84375 45.3125 39.453125 
L 45.3125 46.484375 
Q 50.390625 46.09375 56.25 46.09375 
L 63.671875 46.09375 
L 63.671875 58.984375 
L 55.078125 58.984375 
Q 48.046875 58.984375 41.796875 58.59375 
L 41.796875 65.625 
Q 46.875 65.234375 54.296875 65.234375 
z
M 81.640625 6.25 
L 81.640625 23.828125 
L 55.078125 23.828125 
L 55.078125 6.25 
z
M 40.234375 10.15625 
Q 39.0625 6.640625 39.453125 2.734375 
Q 32.03125 1.5625 22.65625 0 
Q 13.28125 -1.5625 6.640625 -3.515625 
Q 5.078125 1.5625 3.515625 5.46875 
Q 11.71875 5.859375 18.359375 6.828125 
Q 25 7.8125 40.234375 10.15625 
z
" id="SimHei-32467"/>
      <path d="M 46.484375 -8.203125 
Q 46.875 -1.171875 46.875 8.984375 
L 46.875 25 
L 45.3125 25 
Q 42.578125 19.921875 39.0625 15.625 
Q 35.546875 11.328125 31.046875 8 
Q 26.5625 4.6875 21.28125 1.5625 
Q 16.015625 -1.5625 10.546875 -3.90625 
Q 8.984375 0.390625 6.25 4.296875 
Q 10.9375 5.46875 15.234375 7.609375 
Q 19.53125 9.765625 23.828125 12.296875 
Q 28.125 14.84375 31.25 17.96875 
Q 34.375 21.09375 37.109375 25 
L 21.484375 25 
Q 15.625 25 7.03125 24.21875 
L 7.03125 32.03125 
Q 14.84375 31.25 21.484375 31.25 
L 46.875 31.25 
L 46.875 38.28125 
L 17.96875 38.28125 
Q 18.359375 47.65625 18.359375 58.984375 
Q 18.359375 70.3125 17.96875 78.125 
L 83.203125 78.125 
Q 82.8125 70.3125 82.8125 58.984375 
Q 82.8125 47.65625 83.203125 38.28125 
L 54.296875 38.28125 
L 54.296875 31.25 
L 78.90625 31.25 
Q 86.71875 31.25 92.578125 31.640625 
L 92.578125 24.21875 
Q 85.9375 25 79.6875 25 
L 64.453125 25 
Q 69.53125 16.796875 76.953125 12.5 
Q 84.375 8.203125 94.53125 5.859375 
Q 91.796875 2.34375 90.234375 -2.734375 
Q 76.953125 2.34375 69.140625 8.59375 
Q 61.328125 14.84375 57.421875 25 
L 54.296875 25 
L 54.296875 8.59375 
Q 54.296875 0 54.6875 -8.203125 
z
M 75.390625 60.546875 
L 75.390625 72.265625 
L 54.296875 72.265625 
L 54.296875 60.546875 
z
M 46.875 60.546875 
L 46.875 72.265625 
L 26.171875 72.265625 
L 26.171875 60.546875 
z
M 75.390625 44.140625 
L 75.390625 54.6875 
L 54.296875 54.6875 
L 54.296875 44.140625 
z
M 46.875 44.140625 
L 46.875 54.6875 
L 26.171875 54.6875 
L 26.171875 44.140625 
z
" id="SimHei-26524"/>
      <path d="M 46.484375 -3.125 
L 42.1875 -7.421875 
Q 32.421875 1.953125 27.53125 12.109375 
Q 22.65625 22.265625 22.65625 35.15625 
Q 22.65625 48.046875 27.53125 58.203125 
Q 32.421875 68.359375 42.1875 78.125 
L 46.484375 73.828125 
Q 37.5 65.234375 33 56.046875 
Q 28.515625 46.875 28.515625 35.15625 
Q 28.515625 23.4375 33 14.25 
Q 37.5 5.078125 46.484375 -3.125 
z
" id="SimHei-40"/>
      <path d="M 47.65625 1.953125 
L 39.84375 1.953125 
L 39.84375 33.59375 
Q 39.84375 35.9375 39.0625 37.5 
Q 38.28125 39.0625 35.9375 39.0625 
Q 33.203125 39.0625 30.859375 36.125 
Q 28.515625 33.203125 28.515625 28.515625 
L 28.515625 1.953125 
L 20.703125 1.953125 
L 20.703125 33.59375 
Q 20.703125 35.9375 19.921875 37.5 
Q 19.140625 39.0625 16.796875 39.0625 
Q 14.0625 39.0625 11.71875 36.125 
Q 9.375 33.203125 9.375 28.515625 
L 9.375 1.953125 
L 1.5625 1.953125 
L 1.5625 45.703125 
L 9.375 45.703125 
L 9.375 39.84375 
Q 11.328125 42.96875 14.0625 44.71875 
Q 16.796875 46.484375 19.921875 46.484375 
Q 23.046875 46.484375 25.1875 44.71875 
Q 27.34375 42.96875 28.125 39.84375 
Q 30.078125 42.96875 32.609375 44.71875 
Q 35.15625 46.484375 38.28125 46.484375 
Q 42.96875 46.484375 45.3125 43.9375 
Q 47.65625 41.40625 47.65625 36.71875 
z
" id="SimHei-109"/>
      <path d="M 46.484375 33.203125 
L 1.953125 33.203125 
L 1.953125 39.453125 
L 46.484375 39.453125 
z
" id="SimHei-45"/>
      <path d="M 43.75 1.953125 
L 35.9375 1.953125 
L 35.9375 10.15625 
Q 32.8125 5.859375 29.09375 3.515625 
Q 25.390625 1.171875 19.53125 1.171875 
Q 12.5 1.171875 8.984375 5.078125 
Q 5.46875 8.984375 5.46875 14.84375 
L 5.46875 45.703125 
L 13.28125 45.703125 
L 13.28125 17.578125 
Q 13.28125 12.890625 15.625 10.15625 
Q 17.96875 7.421875 21.875 7.421875 
Q 26.953125 7.421875 31.4375 12.6875 
Q 35.9375 17.96875 35.9375 25.78125 
L 35.9375 45.703125 
L 43.75 45.703125 
z
" id="SimHei-117"/>
      <path d="M 44.53125 16.796875 
Q 43.75 9.765625 38.28125 5.46875 
Q 32.8125 1.171875 25.390625 1.171875 
Q 16.015625 1.171875 9.953125 7.21875 
Q 3.90625 13.28125 3.90625 23.828125 
Q 3.90625 34.375 9.953125 40.421875 
Q 16.015625 46.484375 25.390625 46.484375 
Q 33.59375 46.484375 38.859375 41.203125 
Q 44.140625 35.9375 44.140625 23.828125 
L 12.5 23.828125 
Q 12.5 15.234375 16.203125 11.71875 
Q 19.921875 8.203125 25.390625 8.203125 
Q 29.6875 8.203125 32.421875 10.34375 
Q 35.15625 12.5 35.9375 16.796875 
z
M 35.15625 30.078125 
Q 34.375 35.546875 31.640625 37.6875 
Q 28.90625 39.84375 24.609375 39.84375 
Q 20.703125 39.84375 17.578125 37.6875 
Q 14.453125 35.546875 12.890625 30.078125 
z
" id="SimHei-101"/>
      <path d="M 39.0625 37.890625 
Q 31.640625 39.0625 26.5625 35.734375 
Q 21.484375 32.421875 17.96875 24.21875 
L 17.96875 1.953125 
L 10.15625 1.953125 
L 10.15625 45.703125 
L 17.96875 45.703125 
L 17.96875 34.375 
Q 21.484375 40.625 26.75 43.546875 
Q 32.03125 46.484375 39.0625 46.484375 
z
" id="SimHei-114"/>
      <path d="M 49.21875 -13.28125 
L 0 -13.28125 
L 0 -8.59375 
L 49.21875 -8.59375 
z
" id="SimHei-95"/>
      <path d="M 44.140625 23.828125 
Q 44.140625 12.5 38.671875 6.828125 
Q 33.203125 1.171875 25.390625 1.171875 
Q 21.09375 1.171875 17.96875 2.734375 
Q 14.84375 4.296875 12.5 7.8125 
L 12.5 1.953125 
L 4.6875 1.953125 
L 4.6875 68.75 
L 12.5 68.75 
L 12.5 39.84375 
Q 14.84375 43.359375 17.96875 45.109375 
Q 21.09375 46.875 25.390625 46.875 
Q 33.203125 46.875 38.671875 41.015625 
Q 44.140625 35.15625 44.140625 23.828125 
z
M 35.546875 23.828125 
Q 35.546875 31.25 32.609375 35.546875 
Q 29.6875 39.84375 23.828125 39.84375 
Q 19.140625 39.84375 15.8125 35.546875 
Q 12.5 31.25 12.5 23.828125 
Q 12.5 16.40625 15.8125 12.296875 
Q 19.140625 8.203125 23.828125 8.203125 
Q 29.6875 8.203125 32.609375 12.296875 
Q 35.546875 16.40625 35.546875 23.828125 
z
" id="SimHei-98"/>
      <path d="M 44.921875 1.953125 
L 35.546875 1.953125 
Q 34.765625 2.734375 34.375 4.09375 
Q 33.984375 5.46875 33.984375 7.421875 
Q 31.25 4.296875 27.34375 2.734375 
Q 23.4375 1.171875 19.140625 1.171875 
Q 12.890625 1.171875 8.59375 4.296875 
Q 4.296875 7.421875 4.296875 13.28125 
Q 4.296875 19.140625 8.203125 22.65625 
Q 12.109375 26.171875 20.3125 27.34375 
Q 25.78125 28.125 29.875 29.296875 
Q 33.984375 30.46875 33.984375 32.421875 
Q 33.984375 34.765625 32.21875 37.109375 
Q 30.46875 39.453125 24.609375 39.453125 
Q 19.921875 39.453125 17.765625 37.6875 
Q 15.625 35.9375 14.84375 32.8125 
L 6.25 32.8125 
Q 7.03125 39.0625 11.90625 42.765625 
Q 16.796875 46.484375 24.609375 46.484375 
Q 33.203125 46.484375 37.5 42.578125 
Q 41.796875 38.671875 41.796875 31.640625 
L 41.796875 10.15625 
Q 41.796875 7.8125 42.578125 5.859375 
Q 43.359375 3.90625 44.921875 1.953125 
z
M 33.984375 16.40625 
L 33.984375 24.21875 
Q 31.640625 23.4375 29.484375 22.84375 
Q 27.34375 22.265625 22.265625 21.484375 
Q 16.40625 20.703125 14.640625 18.75 
Q 12.890625 16.796875 12.890625 14.0625 
Q 12.890625 11.71875 14.640625 9.953125 
Q 16.40625 8.203125 19.921875 8.203125 
Q 23.4375 8.203125 27.53125 10.15625 
Q 31.640625 12.109375 33.984375 16.40625 
z
" id="SimHei-97"/>
      <path d="M 26.171875 35.15625 
Q 26.171875 22.265625 21.28125 12.109375 
Q 16.40625 1.953125 6.640625 -7.421875 
L 2.34375 -3.125 
Q 11.328125 5.078125 15.8125 14.25 
Q 20.3125 23.4375 20.3125 35.15625 
Q 20.3125 46.875 15.8125 56.046875 
Q 11.328125 65.234375 2.34375 73.828125 
L 6.640625 78.125 
Q 16.40625 68.359375 21.28125 58.203125 
Q 26.171875 48.046875 26.171875 35.15625 
z
" id="SimHei-41"/>
     </defs>
     <use xlink:href="#SimHei-82"/>
     <use x="50" xlink:href="#SimHei-77"/>
     <use x="100" xlink:href="#SimHei-83"/>
     <use x="150" xlink:href="#SimHei-69"/>
     <use x="200" xlink:href="#SimHei-32"/>
     <use x="250" xlink:href="#SimHei-21508"/>
     <use x="350" xlink:href="#SimHei-31639"/>
     <use x="450" xlink:href="#SimHei-27861"/>
     <use x="550" xlink:href="#SimHei-20132"/>
     <use x="650" xlink:href="#SimHei-21449"/>
     <use x="750" xlink:href="#SimHei-39564"/>
     <use x="850" xlink:href="#SimHei-35777"/>
     <use x="950" xlink:href="#SimHei-32467"/>
     <use x="1050" xlink:href="#SimHei-26524"/>
     <use x="1150" xlink:href="#SimHei-40"/>
     <use x="1200" xlink:href="#SimHei-109"/>
     <use x="1250" xlink:href="#SimHei-115"/>
     <use x="1300" xlink:href="#SimHei-100"/>
     <use x="1350" xlink:href="#SimHei-45"/>
     <use x="1400" xlink:href="#SimHei-45"/>
     <use x="1450" xlink:href="#SimHei-117"/>
     <use x="1500" xlink:href="#SimHei-115"/>
     <use x="1550" xlink:href="#SimHei-101"/>
     <use x="1600" xlink:href="#SimHei-114"/>
     <use x="1650" xlink:href="#SimHei-95"/>
     <use x="1700" xlink:href="#SimHei-98"/>
     <use x="1750" xlink:href="#SimHei-97"/>
     <use x="1800" xlink:href="#SimHei-115"/>
     <use x="1850" xlink:href="#SimHei-101"/>
     <use x="1900" xlink:href="#SimHei-100"/>
     <use x="1950" xlink:href="#SimHei-95"/>
     <use x="2000" xlink:href="#SimHei-70"/>
     <use x="2050" xlink:href="#SimHei-97"/>
     <use x="2100" xlink:href="#SimHei-108"/>
     <use x="2150" xlink:href="#SimHei-115"/>
     <use x="2200" xlink:href="#SimHei-101"/>
     <use x="2250" xlink:href="#SimHei-41"/>
    </g>
   </g>
   <g id="legend_1">
    <g id="patch_7">
     <path d="M 404.03 115.581875 
L 501.03 115.581875 
Q 503.03 115.581875 503.03 113.581875 
L 503.03 35.12875 
Q 503.03 33.12875 501.03 33.12875 
L 404.03 33.12875 
Q 402.03 33.12875 402.03 35.12875 
L 402.03 113.581875 
Q 402.03 115.581875 404.03 115.581875 
z
" style="fill:#ffffff;opacity:0.8;stroke:#cccccc;stroke-linejoin:miter;"/>
    </g>
    <g id="text_17">
     <!-- Algorithm -->
     <g transform="translate(430.03 44.081875)scale(0.1 -0.1)">
      <defs>
       <path d="M 48.046875 1.953125 
L 38.671875 1.953125 
L 33.203125 22.65625 
L 16.015625 22.65625 
L 10.546875 1.953125 
L 1.171875 1.953125 
L 20.703125 69.53125 
L 28.515625 69.53125 
z
M 31.25 30.078125 
L 25 53.90625 
L 24.21875 53.90625 
L 17.96875 30.078125 
z
" id="SimHei-65"/>
       <path d="M 46.484375 39.0625 
Q 43.75 39.84375 41.203125 40.03125 
Q 38.671875 40.234375 35.9375 39.453125 
Q 37.109375 38.28125 37.890625 36.515625 
Q 38.671875 34.765625 38.671875 31.25 
Q 38.671875 24.609375 34.171875 20.3125 
Q 29.6875 16.015625 23.046875 16.015625 
Q 21.484375 16.015625 18.9375 16.59375 
Q 16.40625 17.1875 14.84375 17.96875 
Q 13.671875 17.1875 13.28125 16.40625 
Q 12.890625 15.625 12.890625 14.453125 
Q 12.890625 12.5 15.625 11.515625 
Q 18.359375 10.546875 25.390625 10.546875 
Q 36.71875 10.546875 40.8125 7.421875 
Q 44.921875 4.296875 44.921875 -0.390625 
Q 44.921875 -6.640625 38.859375 -9.5625 
Q 32.8125 -12.5 24.609375 -12.5 
Q 14.0625 -12.5 8.984375 -9.765625 
Q 3.90625 -7.03125 3.90625 -2.34375 
Q 3.90625 0 5.859375 2.34375 
Q 7.8125 4.6875 10.9375 6.25 
Q 8.59375 7.421875 7.21875 9.171875 
Q 5.859375 10.9375 5.859375 13.671875 
Q 5.859375 16.015625 7.609375 17.765625 
Q 9.375 19.53125 11.71875 20.703125 
Q 9.765625 22.65625 8.59375 25.390625 
Q 7.421875 28.125 7.421875 31.25 
Q 7.421875 37.890625 11.90625 42.1875 
Q 16.40625 46.484375 23.046875 46.484375 
Q 26.5625 46.484375 29.09375 45.5 
Q 31.640625 44.53125 33.59375 42.578125 
Q 36.71875 44.921875 39.84375 45.890625 
Q 42.96875 46.875 46.484375 46.484375 
z
M 30.859375 31.25 
Q 30.859375 35.15625 28.90625 37.5 
Q 26.953125 39.84375 23.046875 39.84375 
Q 19.140625 39.84375 17.1875 37.5 
Q 15.234375 35.15625 15.234375 31.25 
Q 15.234375 27.34375 17.1875 25 
Q 19.140625 22.65625 23.046875 22.65625 
Q 26.953125 22.65625 28.90625 25 
Q 30.859375 27.34375 30.859375 31.25 
z
M 37.5 -1.171875 
Q 37.5 0.390625 35.734375 1.953125 
Q 33.984375 3.515625 26.953125 3.515625 
Q 25.390625 3.515625 22.65625 3.703125 
Q 19.921875 3.90625 16.40625 4.296875 
Q 13.28125 3.125 12.109375 1.5625 
Q 10.9375 0 10.9375 -1.5625 
Q 10.9375 -3.90625 14.0625 -5.46875 
Q 17.1875 -7.03125 25 -7.03125 
Q 31.640625 -7.03125 34.5625 -5.265625 
Q 37.5 -3.515625 37.5 -1.171875 
z
" id="SimHei-103"/>
       <path d="M 28.125 58.203125 
L 20.3125 58.203125 
L 20.3125 68.359375 
L 28.125 68.359375 
z
M 28.125 1.953125 
L 20.3125 1.953125 
L 20.3125 45.703125 
L 28.125 45.703125 
z
" id="SimHei-105"/>
       <path d="M 42.96875 3.125 
Q 41.015625 2.34375 38.46875 1.75 
Q 35.9375 1.171875 31.640625 1.171875 
Q 24.609375 1.171875 20.3125 5.078125 
Q 16.015625 8.984375 16.015625 16.015625 
L 16.015625 39.453125 
L 2.734375 39.453125 
L 2.734375 45.703125 
L 16.015625 45.703125 
L 16.015625 60.9375 
L 23.828125 60.9375 
L 23.828125 45.703125 
L 39.84375 45.703125 
L 39.84375 39.453125 
L 23.828125 39.453125 
L 23.828125 15.625 
Q 23.828125 12.5 25.390625 10.34375 
Q 26.953125 8.203125 31.25 8.203125 
Q 35.546875 8.203125 38.28125 8.984375 
Q 41.015625 9.765625 42.96875 10.9375 
z
" id="SimHei-116"/>
       <path d="M 43.75 1.953125 
L 35.9375 1.953125 
L 35.9375 30.078125 
Q 35.9375 34.765625 33.59375 37.5 
Q 31.25 40.234375 27.34375 40.234375 
Q 22.265625 40.234375 17.765625 34.953125 
Q 13.28125 29.6875 13.28125 21.875 
L 13.28125 1.953125 
L 5.46875 1.953125 
L 5.46875 68.75 
L 13.28125 68.75 
L 13.28125 37.5 
Q 16.40625 41.796875 20.109375 44.140625 
Q 23.828125 46.484375 29.6875 46.484375 
Q 36.71875 46.484375 40.234375 42.578125 
Q 43.75 38.671875 43.75 32.8125 
z
" id="SimHei-104"/>
      </defs>
      <use xlink:href="#SimHei-65"/>
      <use x="50" xlink:href="#SimHei-108"/>
      <use x="100" xlink:href="#SimHei-103"/>
      <use x="150" xlink:href="#SimHei-111"/>
      <use x="200" xlink:href="#SimHei-114"/>
      <use x="250" xlink:href="#SimHei-105"/>
      <use x="300" xlink:href="#SimHei-116"/>
      <use x="350" xlink:href="#SimHei-104"/>
      <use x="400" xlink:href="#SimHei-109"/>
     </g>
    </g>
    <g id="line2d_32">
     <path d="M 406.03 53.831875 
L 426.03 53.831875 
" style="fill:none;stroke:#1f77b4;stroke-linecap:square;stroke-width:1.5;"/>
    </g>
    <g id="line2d_33">
     <g>
      <use style="fill:#1f77b4;stroke:#1f77b4;" x="416.03" xlink:href="#m8f280251a9" y="53.831875"/>
     </g>
    </g>
    <g id="text_18">
     <!-- SVD -->
     <g transform="translate(434.03 57.331875)scale(0.1 -0.1)">
      <defs>
       <path d="M 47.65625 68.75 
L 28.125 1.171875 
L 20.3125 1.171875 
L 0.78125 68.75 
L 10.15625 68.75 
L 23.828125 17.578125 
L 24.609375 17.578125 
L 38.28125 68.75 
z
" id="SimHei-86"/>
       <path d="M 45.703125 35.15625 
Q 45.703125 17.1875 38.078125 9.5625 
Q 30.46875 1.953125 17.578125 1.953125 
L 4.296875 1.953125 
L 4.296875 68.75 
L 17.578125 68.75 
Q 32.03125 68.75 38.859375 60.9375 
Q 45.703125 53.125 45.703125 35.15625 
z
M 36.328125 35.15625 
Q 36.328125 49.609375 31.640625 55.46875 
Q 26.953125 61.328125 17.578125 61.328125 
L 13.28125 61.328125 
L 13.28125 9.375 
L 17.578125 9.375 
Q 26.953125 9.375 31.640625 15.03125 
Q 36.328125 20.703125 36.328125 35.15625 
z
" id="SimHei-68"/>
      </defs>
      <use xlink:href="#SimHei-83"/>
      <use x="50" xlink:href="#SimHei-86"/>
      <use x="100" xlink:href="#SimHei-68"/>
     </g>
    </g>
    <g id="line2d_34">
     <path d="M 406.03 67.081875 
L 426.03 67.081875 
" style="fill:none;stroke:#ff7f0e;stroke-linecap:square;stroke-width:1.5;"/>
    </g>
    <g id="line2d_35">
     <g>
      <use style="fill:#ff7f0e;stroke:#ff7f0e;" x="416.03" xlink:href="#mce928b44fc" y="67.081875"/>
     </g>
    </g>
    <g id="text_19">
     <!-- KNNBasic -->
     <g transform="translate(434.03 70.581875)scale(0.1 -0.1)">
      <defs>
       <path d="M 47.65625 1.953125 
L 37.5 1.953125 
L 19.53125 35.15625 
L 13.28125 26.953125 
L 13.28125 1.953125 
L 4.296875 1.953125 
L 4.296875 68.75 
L 13.28125 68.75 
L 13.28125 39.84375 
L 35.546875 68.75 
L 46.09375 68.75 
L 25.390625 42.578125 
z
" id="SimHei-75"/>
       <path d="M 44.53125 1.953125 
L 34.765625 1.953125 
L 13.28125 50.390625 
L 12.890625 50.390625 
L 12.890625 1.953125 
L 3.90625 1.953125 
L 3.90625 68.75 
L 13.671875 68.75 
L 35.15625 20.3125 
L 35.546875 20.3125 
L 35.546875 68.75 
L 44.53125 68.75 
z
" id="SimHei-78"/>
       <path d="M 46.09375 21.875 
Q 46.09375 10.546875 39.84375 6.25 
Q 33.59375 1.953125 23.828125 1.953125 
L 4.296875 1.953125 
L 4.296875 68.75 
L 24.609375 68.75 
Q 34.375 68.75 39.25 63.671875 
Q 44.140625 58.59375 44.140625 51.5625 
Q 44.140625 44.53125 40.8125 41.203125 
Q 37.5 37.890625 33.984375 36.71875 
Q 38.671875 35.546875 42.375 31.828125 
Q 46.09375 28.125 46.09375 21.875 
z
M 35.15625 51.5625 
Q 35.15625 56.640625 32.21875 58.984375 
Q 29.296875 61.328125 25 61.328125 
L 13.28125 61.328125 
L 13.28125 40.625 
L 24.609375 40.625 
Q 28.90625 40.625 32.03125 43.15625 
Q 35.15625 45.703125 35.15625 51.5625 
z
M 36.71875 21.875 
Q 36.71875 28.125 32.609375 30.65625 
Q 28.515625 33.203125 23.4375 33.203125 
L 13.28125 33.203125 
L 13.28125 9.375 
L 22.265625 9.375 
Q 29.296875 9.375 33 12.109375 
Q 36.71875 14.84375 36.71875 21.875 
z
" id="SimHei-66"/>
       <path d="M 44.53125 19.53125 
Q 44.53125 11.328125 38.859375 6.25 
Q 33.203125 1.171875 24.609375 1.171875 
Q 16.015625 1.171875 9.765625 7.21875 
Q 3.515625 13.28125 3.515625 23.828125 
Q 3.515625 34.375 9.765625 40.421875 
Q 16.015625 46.484375 24.609375 46.484375 
Q 33.203125 46.484375 38.28125 41.984375 
Q 43.359375 37.5 43.359375 31.25 
L 34.765625 31.25 
Q 34.375 35.9375 31.4375 37.6875 
Q 28.515625 39.453125 24.609375 39.453125 
Q 19.921875 39.453125 16.015625 35.734375 
Q 12.109375 32.03125 12.109375 23.828125 
Q 12.109375 15.625 16.015625 11.90625 
Q 19.921875 8.203125 24.609375 8.203125 
Q 29.6875 8.203125 32.8125 10.9375 
Q 35.9375 13.671875 35.9375 19.53125 
z
" id="SimHei-99"/>
      </defs>
      <use xlink:href="#SimHei-75"/>
      <use x="50" xlink:href="#SimHei-78"/>
      <use x="100" xlink:href="#SimHei-78"/>
      <use x="150" xlink:href="#SimHei-66"/>
      <use x="200" xlink:href="#SimHei-97"/>
      <use x="250" xlink:href="#SimHei-115"/>
      <use x="300" xlink:href="#SimHei-105"/>
      <use x="350" xlink:href="#SimHei-99"/>
     </g>
    </g>
    <g id="line2d_36">
     <path d="M 406.03 80.331875 
L 426.03 80.331875 
" style="fill:none;stroke:#2ca02c;stroke-linecap:square;stroke-width:1.5;"/>
    </g>
    <g id="line2d_37">
     <g>
      <use style="fill:#2ca02c;stroke:#2ca02c;" x="416.03" xlink:href="#m9d50251b5e" y="80.331875"/>
     </g>
    </g>
    <g id="text_20">
     <!-- KNNWithMeans -->
     <g transform="translate(434.03 83.831875)scale(0.1 -0.1)">
      <defs>
       <path d="M 48.046875 68.75 
L 39.453125 1.171875 
L 31.640625 1.171875 
L 24.609375 51.171875 
L 23.828125 51.171875 
L 16.796875 1.171875 
L 8.984375 1.171875 
L 0.390625 68.75 
L 8.984375 68.75 
L 13.28125 26.171875 
L 14.0625 26.171875 
L 19.921875 68.75 
L 28.515625 68.75 
L 34.375 26.171875 
L 35.15625 26.171875 
L 39.453125 68.75 
z
" id="SimHei-87"/>
       <path d="M 43.75 1.953125 
L 35.9375 1.953125 
L 35.9375 30.078125 
Q 35.9375 34.765625 33.59375 37.5 
Q 31.25 40.234375 27.34375 40.234375 
Q 22.265625 40.234375 17.765625 34.953125 
Q 13.28125 29.6875 13.28125 21.875 
L 13.28125 1.953125 
L 5.46875 1.953125 
L 5.46875 45.703125 
L 13.28125 45.703125 
L 13.28125 37.5 
Q 16.40625 41.796875 20.109375 44.140625 
Q 23.828125 46.484375 29.6875 46.484375 
Q 36.71875 46.484375 40.234375 42.578125 
Q 43.75 38.671875 43.75 32.8125 
z
" id="SimHei-110"/>
      </defs>
      <use xlink:href="#SimHei-75"/>
      <use x="50" xlink:href="#SimHei-78"/>
      <use x="100" xlink:href="#SimHei-78"/>
      <use x="150" xlink:href="#SimHei-87"/>
      <use x="200" xlink:href="#SimHei-105"/>
      <use x="250" xlink:href="#SimHei-116"/>
      <use x="300" xlink:href="#SimHei-104"/>
      <use x="350" xlink:href="#SimHei-77"/>
      <use x="400" xlink:href="#SimHei-101"/>
      <use x="450" xlink:href="#SimHei-97"/>
      <use x="500" xlink:href="#SimHei-110"/>
      <use x="550" xlink:href="#SimHei-115"/>
     </g>
    </g>
    <g id="line2d_38">
     <path d="M 406.03 93.581875 
L 426.03 93.581875 
" style="fill:none;stroke:#d62728;stroke-linecap:square;stroke-width:1.5;"/>
    </g>
    <g id="line2d_39">
     <g>
      <use style="fill:#d62728;stroke:#d62728;" x="416.03" xlink:href="#m850676f114" y="93.581875"/>
     </g>
    </g>
    <g id="text_21">
     <!-- KNNWithZScore -->
     <g transform="translate(434.03 97.081875)scale(0.1 -0.1)">
      <defs>
       <path d="M 45.3125 1.953125 
L 3.515625 1.953125 
L 3.515625 9.375 
L 35.15625 61.328125 
L 5.859375 61.328125 
L 5.859375 68.75 
L 44.140625 68.75 
L 44.140625 61.328125 
L 12.5 9.375 
L 45.3125 9.375 
z
" id="SimHei-90"/>
      </defs>
      <use xlink:href="#SimHei-75"/>
      <use x="50" xlink:href="#SimHei-78"/>
      <use x="100" xlink:href="#SimHei-78"/>
      <use x="150" xlink:href="#SimHei-87"/>
      <use x="200" xlink:href="#SimHei-105"/>
      <use x="250" xlink:href="#SimHei-116"/>
      <use x="300" xlink:href="#SimHei-104"/>
      <use x="350" xlink:href="#SimHei-90"/>
      <use x="400" xlink:href="#SimHei-83"/>
      <use x="450" xlink:href="#SimHei-99"/>
      <use x="500" xlink:href="#SimHei-111"/>
      <use x="550" xlink:href="#SimHei-114"/>
      <use x="600" xlink:href="#SimHei-101"/>
     </g>
    </g>
    <g id="line2d_40">
     <path d="M 406.03 106.831875 
L 426.03 106.831875 
" style="fill:none;stroke:#9467bd;stroke-linecap:square;stroke-width:1.5;"/>
    </g>
    <g id="line2d_41">
     <g>
      <use style="fill:#9467bd;stroke:#9467bd;" x="416.03" xlink:href="#m0581bfb0c2" y="106.831875"/>
     </g>
    </g>
    <g id="text_22">
     <!-- KNNBaseline -->
     <g transform="translate(434.03 110.331875)scale(0.1 -0.1)">
      <use xlink:href="#SimHei-75"/>
      <use x="50" xlink:href="#SimHei-78"/>
      <use x="100" xlink:href="#SimHei-78"/>
      <use x="150" xlink:href="#SimHei-66"/>
      <use x="200" xlink:href="#SimHei-97"/>
      <use x="250" xlink:href="#SimHei-115"/>
      <use x="300" xlink:href="#SimHei-101"/>
      <use x="350" xlink:href="#SimHei-108"/>
      <use x="400" xlink:href="#SimHei-105"/>
      <use x="450" xlink:href="#SimHei-110"/>
      <use x="500" xlink:href="#SimHei-101"/>
     </g>
    </g>
   </g>
  </g>
 </g>
 <defs>
  <clipPath id="pe23a0d18db">
   <rect height="363.35125" width="801.34" x="51.86" y="28.12875"/>
  </clipPath>
 </defs>
</svg>
